<svg  version="1.1" baseProfile="full" xmlns="http://www.w3.org/2000/svg"
 xmlns:xlink="http://www.w3.org/1999/xlink"
xmlns:ev="http://www.w3.org/2001/xml-events" display="none">
<symbol id="logo" fill="none" width="128" height="34" viewBox="0 0 128 34" xmlns="http://www.w3.org/2000/svg">
<g>
<path fill-rule="evenodd" clip-rule="evenodd" d="M105.23 22.26C107.72 22.26 109.69 19.57 109.69 16.26V8.26H111.69V16.26C111.69 20.66 108.81 24.21 105.27 24.21C101.73 24.21 98.85 20.66 98.85 16.26V8.26H100.85V16.26C100.77 19.62 102.74 22.31 105.22 22.31L105.23 22.26ZM57.06 24.33H55.06V22.9C53.7702 23.8028 52.2344 24.288 50.66 24.29C46.9602 24.3148 43.7261 21.7993 42.8396 18.2072C41.953 14.6151 43.6452 10.8837 46.9316 9.18416C50.218 7.48461 54.2411 8.26035 56.66 11.06L55.19 12.37C53.3509 10.3139 50.3468 9.77667 47.9092 11.068C45.4715 12.3594 44.2284 15.1465 44.8965 17.823C45.5645 20.4995 47.9714 22.3756 50.73 22.37C52.4117 22.3735 54.0112 21.6431 55.11 20.37H49.71V18.37H57.08L57.06 24.33ZM23.23 8.39H21.23V24.31H29.23V22.31H23.23V8.39ZM35.46 20.39C38.7737 20.39 41.46 17.7037 41.46 14.39C41.46 11.0763 38.7737 8.39 35.46 8.39C33.8687 8.39 32.3426 9.02214 31.2174 10.1474C30.0922 11.2726 29.46 12.7987 29.46 14.39C29.46 17.7037 32.1463 20.39 35.46 20.39ZM35.46 18.39C37.6691 18.39 39.46 16.5991 39.46 14.39C39.46 12.1809 37.6691 10.39 35.46 10.39C33.2509 10.39 31.46 12.1809 31.46 14.39C31.471 16.5913 33.2587 18.37 35.46 18.37V18.39ZM39.46 24.33V22.33H31.46V24.33H39.46ZM70.42 14.43C70.42 11.1163 67.7337 8.43 64.42 8.43L64.44 8.39C62.8383 8.38463 61.3009 9.0199 60.1702 10.1544C59.0395 11.2888 58.4093 12.8283 58.42 14.43C58.42 17.7437 61.1063 20.43 64.42 20.43C67.7337 20.43 70.42 17.7437 70.42 14.43ZM64.42 18.43C66.6292 18.43 68.42 16.6391 68.42 14.43C68.42 12.2209 66.6292 10.43 64.42 10.43C62.2109 10.43 60.42 12.2209 60.42 14.43C60.4529 16.6235 62.2463 18.3812 64.44 18.37L64.42 18.43ZM68.42 24.37V22.37H60.42V24.37H68.42ZM72.55 8.39H74.55V24.29H72.55V8.39ZM79.32 8.39H77.32V24.32H79.32V20.32H79.63C81.9154 20.5679 84.1415 19.4883 85.3619 17.5402C86.5822 15.5921 86.5822 13.1179 85.3619 11.1698C84.1415 9.22169 81.9154 8.14207 79.63 8.39C79.527 8.37908 79.4231 8.37908 79.32 8.39ZM79.32 10.39V10.4367L79.31 10.44L79.32 10.39ZM79.32 10.4367C79.4206 10.4033 79.5246 10.381 79.63 10.37C81.1724 10.1646 82.6938 10.8723 83.5305 12.1841C84.3672 13.496 84.3672 15.174 83.5305 16.4859C82.6938 17.7977 81.1724 18.5054 79.63 18.3H79.32V10.4367ZM93.6969 9.56615L93.73 9.54L93.72 9.59L93.6969 9.56615ZM90.91 8.44C91.9561 8.40912 92.9667 8.81791 93.6969 9.56615L92.25 10.71C91.7287 10.1653 90.939 9.97198 90.2251 10.2143C89.5111 10.4565 89.0022 11.0905 88.92 11.84V12C88.92 12.88 89.53 13.47 90.72 13.55C95.3 13.83 97.4 15.98 97.4 18.82V19C97.1585 21.2955 95.6007 23.2393 93.413 23.975C91.2253 24.7107 88.8094 24.1031 87.23 22.42L88.76 21.24C89.4808 22.0125 90.5046 22.4293 91.56 22.38C93.5612 22.4855 95.2899 20.9949 95.48 19V18.86C95.48 16.19 92.86 15.7 90.59 15.48C88.49 15.28 86.98 13.97 86.98 12.08V12C87.1338 9.95653 88.8613 8.39164 90.91 8.44ZM125.04 24.26H127.04L127.02 8.39L120.42 17.08L113.82 8.39V24.29H115.82V14.36L120.43 20.36L125.04 14.36V24.26Z" fill="white"/>
<path fill-rule="evenodd" clip-rule="evenodd" d="M11.63 6C11.63 2.99557 9.19443 0.559998 6.19 0.559998C3.18557 0.559998 0.75 2.99557 0.75 6V22.45L5.23 25.66V33.48H7.15V25.66L11.63 22.45V6ZM9.71 15.2L7.15 17.76V15.36L9.71 12.8V15.2ZM5.27 15.36L2.71 12.8V15.2L5.27 17.76V15.36ZM9.71 10.08L6.19 13.6L2.67 10V7.6L6.19 11.12L9.71 7.6V10.08ZM9.59 5.09C9.17201 3.55477 7.7811 2.48704 6.19 2.48V2.44C4.58749 2.45191 3.19286 3.5389 2.79 5.09L6.19 8.48L9.59 5.09ZM2.67 21.48V17.88L5.23 20.44V23.3L2.67 21.48ZM7.15 20.44V23.31L9.71 21.47V17.88L7.15 20.44Z"  fill="#FFAC12"/>
</g>
</symbol>
<symbol id="arrow-right" width="20" height="10" viewBox="0 0 20 10">
<g>
<path d="M19.7558 4.22568L15.7742 0.244013C15.5358 0.00575645 15.1775 -0.0655052 14.8661 0.0634481C14.5548 0.192401 14.3517 0.496183 14.3517 0.83318V3.35651C14.3517 3.47157 14.2584 3.56485 14.1433 3.56485H1.25C0.559644 3.56485 0 4.12449 0 4.81485C0 5.5052 0.559644 6.06485 1.25 6.06485H14.1433C14.2584 6.06485 14.3517 6.15812 14.3517 6.27318V8.79651C14.3517 9.13351 14.5548 9.43729 14.8661 9.56625C15.1775 9.6952 15.5358 9.62394 15.7742 9.38568L19.7558 5.40401C20.0812 5.0786 20.0812 4.5511 19.7558 4.22568Z"/>
</g>
</symbol>
<symbol id="arrow-down" width="12" height="8" viewBox="0 0 12 8">
<g>
<path d="M5.76 7.43989C5.44238 7.44028 5.13998 7.30386 4.93008 7.06549L0.220799 1.71253C-0.0887669 1.3436 -0.0471988 0.79502 0.314423 0.476955C0.676045 0.15889 1.22545 0.187683 1.55184 0.541807L5.66976 5.22277C5.69254 5.24876 5.72543 5.26367 5.76 5.26367C5.79457 5.26367 5.82745 5.24876 5.85024 5.22277L9.96816 0.541807C10.1749 0.295406 10.4989 0.180319 10.8148 0.241082C11.1306 0.301845 11.3888 0.528924 11.4894 0.834448C11.59 1.13997 11.5172 1.47601 11.2992 1.71253L6.59136 7.06357C6.3811 7.30252 6.07829 7.43959 5.76 7.43989Z" fill="black"/>
</g>
</symbol>
<symbol id="bed" width="14" height="12" viewBox="0 0 14 12">
<g>
<path d="M6.04568 1.93541H7.95435C8.83758 1.93621 9.60446 2.54396 9.80701 3.40366C9.82401 3.47533 9.88794 3.52599 9.9616 3.52616H12.8864C12.9286 3.52631 12.9691 3.50966 12.999 3.47989C13.0289 3.45012 13.0457 3.40967 13.0457 3.36749V1.77616C13.0457 1.43863 12.9116 1.11494 12.6728 0.876333C12.4341 0.637724 12.1104 0.503752 11.7728 0.503906H2.22718C1.88966 0.503752 1.5659 0.637724 1.32719 0.876333C1.08847 1.11494 0.954346 1.43863 0.954346 1.77616V3.36749C0.954345 3.40967 0.971142 3.45012 1.00102 3.47989C1.03091 3.50966 1.07141 3.52631 1.1136 3.52616H4.03843C4.11224 3.52642 4.1764 3.47557 4.19301 3.40366C4.39557 2.54396 5.16244 1.93621 6.04568 1.93541Z" fill="black"/>
<path d="M0.636417 4.4812C0.467581 4.48105 0.305616 4.54805 0.186231 4.66743C0.0668464 4.78682 -0.000154698 4.94878 2.68218e-07 5.11762V8.45837C-2.50467e-07 8.76083 0.212885 9.02151 0.50925 9.08195C0.583199 9.09716 0.636306 9.1622 0.636417 9.2377V10.5263C0.636417 10.8778 0.92135 11.1627 1.27283 11.1627C1.62432 11.1627 1.90925 10.8778 1.90925 10.5263V9.25403C1.9091 9.21185 1.92574 9.17135 1.95552 9.14146C1.98529 9.11158 2.02573 9.09478 2.06792 9.09478H11.9321C11.9743 9.09478 12.0147 9.11158 12.0445 9.14146C12.0743 9.17135 12.0909 9.21185 12.0908 9.25403V10.5263C12.0908 10.8778 12.3757 11.1627 12.7272 11.1627C13.0787 11.1627 13.3636 10.8778 13.3636 10.5263V9.2377C13.3637 9.1622 13.4168 9.09716 13.4908 9.08195C13.7871 9.02151 14 8.76083 14 8.45837V5.11762C14.0002 4.94878 13.9332 4.78682 13.8138 4.66743C13.6944 4.54805 13.5324 4.48105 13.3636 4.4812H0.636417Z" fill="black"/>
</g>
</symbol>
<symbol id="bath" width="17" height="16" viewBox="0 0 17 16">
<g>
<path fill-rule="evenodd" clip-rule="evenodd" d="M15.3333 9.33335C15.5178 9.33468 15.6935 9.41183 15.8193 9.54668C15.9455 9.67886 16.011 9.85761 16 10.04C15.7997 13.3874 13.0267 15.9997 9.67333 16H6.32666C2.97324 15.9997 0.200326 13.3874 -4.91715e-06 10.04C-0.00878807 9.85806 0.0560946 9.68023 0.179995 9.54668C0.304916 9.41018 0.481628 9.33272 0.666662 9.33335H3.07866C3.22565 9.33473 3.3562 9.23967 3.4 9.09935C3.5741 8.54572 4.08631 8.1683 4.66666 8.16601H8.00333C8.58368 8.1683 9.09589 8.54572 9.26999 9.09935C9.31343 9.23849 9.44223 9.33327 9.588 9.33335H13.166C13.3501 9.33335 13.4993 9.18411 13.4993 9.00001V2.00001C13.5001 1.73655 13.3456 1.49736 13.1051 1.38968C12.8647 1.282 12.5834 1.32602 12.3873 1.50201L12.114 1.77535C12.0251 1.86493 11.9943 1.99706 12.0347 2.11668C12.2671 2.80327 12.0907 3.56229 11.5793 4.07601L11.446 4.21268C11.1857 4.47294 10.7637 4.47294 10.5033 4.21268L8.74 2.44868C8.47974 2.18835 8.47974 1.76635 8.74 1.50601L8.87666 1.36935C9.39648 0.872756 10.147 0.701707 10.8307 0.924014C10.9494 0.96174 11.0792 0.930112 11.1673 0.842014L11.476 0.533348C12.0593 -0.00563735 12.9062 -0.148438 13.634 0.169491C14.3617 0.487419 14.8324 1.20583 14.8333 2.00001V9.00001C14.8333 9.18411 14.9826 9.33335 15.1667 9.33335H15.3333ZM7.66666 13.5C7.85076 13.5 8 13.3508 8 13.1667V9.83335C8 9.64925 7.85076 9.50001 7.66666 9.50001H5C4.8159 9.50001 4.66666 9.64925 4.66666 9.83335V13.1667C4.66666 13.3508 4.8159 13.5 5 13.5H7.66666Z" fill="black"/>
<path d="M6 4.05856C6.09626 4.0594 6.19155 4.03939 6.27934 3.99989L7.49 3.44123C7.70663 3.34179 7.85374 3.13434 7.87594 2.89702C7.89813 2.6597 7.79203 2.42856 7.5976 2.29068C7.40318 2.1528 7.14996 2.12912 6.93334 2.22856L5.72067 2.78656C5.43638 2.91774 5.28168 3.22908 5.34883 3.53489C5.41599 3.8407 5.68691 4.05857 6 4.05856Z" fill="black"/>
<path d="M9.41467 7.67273C9.75322 7.81715 10.1448 7.65988 10.2893 7.3214L10.8133 6.09473C10.9485 5.75826 10.7899 5.37548 10.4564 5.23312C10.1229 5.09077 9.73684 5.24106 9.58734 5.5714L9.06667 6.80007C8.92318 7.13716 9.07859 7.52688 9.41467 7.67273Z" fill="black"/>
<path d="M6.9907 6.05074C7.24974 6.31229 7.67174 6.31438 7.93336 6.05541L8.88136 5.11807C9.1359 4.85799 9.13484 4.44183 8.87897 4.18304C8.6231 3.92426 8.20698 3.91849 7.94403 4.17007L6.99603 5.10807C6.7343 5.36693 6.73191 5.78894 6.9907 6.05074Z" fill="black"/>
</g>
</symbol>
<symbol id="size" width="16" height="16" viewBox="0 0 16 16">
<g>
<path d="M4.66667 3C5.03486 3 5.33333 2.70152 5.33333 2.33333V0.666667C5.33333 0.298477 5.03486 0 4.66667 0C4.29848 0 4 0.298477 4 0.666667V2.33333C4 2.70152 4.29848 3 4.66667 3Z" fill="black"/>
<path d="M3 4.66667C3 4.29848 2.70152 4 2.33333 4H0.666667C0.298477 4 0 4.29848 0 4.66667C0 5.03486 0.298477 5.33333 0.666667 5.33333H2.33333C2.70152 5.33333 3 5.03486 3 4.66667Z" fill="black"/>
<path d="M2.33333 10.6667H0.666667C0.298477 10.6667 0 10.9652 0 11.3334C0 11.7016 0.298477 12.0001 0.666667 12.0001H2.33333C2.70152 12.0001 3 11.7016 3 11.3334C3 10.9652 2.70152 10.6667 2.33333 10.6667Z" fill="black"/>
<path d="M11.3333 0C10.9651 0 10.6666 0.298477 10.6666 0.666667V2.33333C10.6666 2.70152 10.9651 3 11.3333 3C11.7015 3 12 2.70152 12 2.33333V0.666667C12 0.298477 11.7015 0 11.3333 0Z" fill="black"/>
<path d="M4.66667 13C4.29848 13 4 13.2985 4 13.6667V15.3333C4 15.7015 4.29848 16 4.66667 16C5.03486 16 5.33333 15.7015 5.33333 15.3333V13.6667C5.33333 13.2985 5.03486 13 4.66667 13Z" fill="black"/>
<path d="M11.3333 13C10.9651 13 10.6666 13.2985 10.6666 13.6667V15.3333C10.6666 15.7015 10.9651 16 11.3333 16C11.7015 16 12 15.7015 12 15.3333V13.6667C12 13.2985 11.7015 13 11.3333 13Z" fill="black"/>
<path d="M13.6667 5.33333H15.3333C15.7015 5.33333 16 5.03486 16 4.66667C16 4.29848 15.7015 4 15.3333 4H13.6667C13.2985 4 13 4.29848 13 4.66667C13 5.03486 13.2985 5.33333 13.6667 5.33333Z" fill="black"/>
<path d="M15.3333 10.6667H13.6667C13.2985 10.6667 13 10.9652 13 11.3334C13 11.7016 13.2985 12.0001 13.6667 12.0001H15.3333C15.7015 12.0001 16 11.7016 16 11.3334C16 10.9652 15.7015 10.6667 15.3333 10.6667Z" fill="black"/>
<path fill-rule="evenodd" clip-rule="evenodd" d="M11.3333 4C11.7015 4 12 4.29848 12 4.66667V11.3333C12 11.7015 11.7015 12 11.3333 12H4.66667C4.29848 12 4 11.7015 4 11.3333V4.66667C4 4.29848 4.29848 4 4.66667 4H11.3333ZM10.3333 10.6667C10.5174 10.6667 10.6667 10.5174 10.6667 10.3333V5.66667C10.6667 5.48257 10.5174 5.33333 10.3333 5.33333H5.66667C5.48257 5.33333 5.33333 5.48257 5.33333 5.66667V10.3333C5.33333 10.5174 5.48257 10.6667 5.66667 10.6667H10.3333Z" fill="black"/>
</g>
</symbol>
<symbol id="garage" width="16" height="16" viewBox="0 0 16 16">
<g>
<path d="M15.8 3.94466L8.13333 0.611331C8.04846 0.573567 7.95154 0.573567 7.86667 0.611331L0.2 3.94466C0.0785815 3.99766 6.82525e-05 4.11752 0 4.25V5.25C0 5.43409 0.149238 5.58333 0.333333 5.58333H15.6667C15.8508 5.58333 16 5.43409 16 5.25V4.25C15.9999 4.11752 15.9214 3.99766 15.8 3.94466Z" fill="black"/>
<path d="M11.4999 9.58337H4.83325C4.55711 9.58337 4.33325 9.80723 4.33325 10.0834C4.33325 10.3595 4.55711 10.5834 4.83325 10.5834H11.4999C11.7761 10.5834 11.9999 10.3595 11.9999 10.0834C11.9999 9.80723 11.7761 9.58337 11.4999 9.58337V9.58337Z" fill="black"/>
<path d="M11.4999 11.9166H4.83325C4.55711 11.9166 4.33325 12.1405 4.33325 12.4166C4.33325 12.6928 4.55711 12.9166 4.83325 12.9166H11.4999C11.7761 12.9166 11.9999 12.6928 11.9999 12.4166C11.9999 12.1405 11.7761 11.9166 11.4999 11.9166Z" fill="black"/>
<path fill-rule="evenodd" clip-rule="evenodd" d="M15.3333 14.0834C15.7015 14.0834 16 14.3819 16 14.75C16 15.1182 15.7015 15.4167 15.3333 15.4167H0.666667C0.298477 15.4167 0 15.1182 0 14.75C0 14.3819 0.298477 14.0834 0.666667 14.0834H1C1.18409 14.0834 1.33333 13.9341 1.33333 13.75V6.91671C1.33333 6.73261 1.48257 6.58337 1.66667 6.58337H14.3333C14.5174 6.58337 14.6667 6.73261 14.6667 6.91671V13.75C14.6667 13.9341 14.8159 14.0834 15 14.0834H15.3333ZM4 8.25004C3.63181 8.25004 3.33333 8.54852 3.33333 8.91671V13.75C3.33333 13.9341 3.48257 14.0834 3.66667 14.0834H12.6667C12.8508 14.0834 13 13.9341 13 13.75V8.91671C13 8.54852 12.7015 8.25004 12.3333 8.25004H4Z" fill="black"/>
</g>
</symbol>
<symbol id="date" width="16" height="16" viewBox="0 0 16 16">
<g>
<path fill-rule="evenodd" clip-rule="evenodd" d="M12.4999 2H14.3333C15.0696 2 15.6666 2.59695 15.6666 3.33333V14.6667C15.6666 15.403 15.0696 16 14.3333 16H1.66659C0.930206 16 0.333252 15.403 0.333252 14.6667V3.33333C0.333252 2.59695 0.930206 2 1.66659 2H2.66659C2.85068 2 2.99992 2.14924 2.99992 2.33333V3.83333C2.99992 4.10948 3.22378 4.33333 3.49992 4.33333C3.77606 4.33333 3.99992 4.10948 3.99992 3.83333V0.666667C3.99992 0.298477 4.2984 0 4.66659 0C5.03478 0 5.33325 0.298477 5.33325 0.666667V1.834C5.33362 1.92579 5.40813 2 5.49992 2H9.66658C9.85068 2 9.99992 2.14924 9.99992 2.33333V3.83333C9.99992 4.10948 10.2238 4.33333 10.4999 4.33333C10.7761 4.33333 10.9999 4.10948 10.9999 3.83333V0.666667C10.9999 0.298477 11.2984 0 11.6666 0C12.0348 0 12.3333 0.298477 12.3333 0.666667V1.83333C12.3333 1.92538 12.4079 2 12.4999 2ZM1.99992 14.6667H13.9999C14.184 14.6667 14.3333 14.5174 14.3333 14.3333V6.33333C14.3333 6.14924 14.184 6 13.9999 6H1.99992C1.81582 6 1.66659 6.14924 1.66659 6.33333V14.3333C1.66659 14.5174 1.81582 14.6667 1.99992 14.6667Z" fill="black"/>
</g>
</symbol>
<symbol id="fb" width="10" height="20" viewBox="0 0 10 20">
<g>
<path d="M8.14999 3.29509H9.96167V0.139742C9.64911 0.0967442 8.57417 0 7.32229 0C4.7102 0 2.92084 1.643 2.92084 4.66274V7.44186H0.0383606V10.9693H2.92084V19.845H6.4549V10.9701H9.22079L9.65986 7.44269H6.45407V5.01251C6.4549 3.99297 6.72942 3.29509 8.14999 3.29509Z" fill="white"/>
</g>
</symbol>
<symbol id="inst" width="22" height="22" viewBox="0 0 22 22">
<g>
<path fill-rule="evenodd" clip-rule="evenodd" d="M6.875 0H15.125C18.9214 0 22 3.07862 22 6.875V15.125C22 18.9214 18.9214 22 15.125 22H6.875C3.07862 22 0 18.9214 0 15.125V6.875C0 3.07862 3.07862 0 6.875 0ZM15.125 19.9375C17.7787 19.9375 19.9375 17.7787 19.9375 15.125V6.875C19.9375 4.22125 17.7787 2.0625 15.125 2.0625H6.875C4.22125 2.0625 2.0625 4.22125 2.0625 6.875V15.125C2.0625 17.7787 4.22125 19.9375 6.875 19.9375H15.125Z" fill="white"/>
<path fill-rule="evenodd" clip-rule="evenodd" d="M5.5 11C5.5 7.96263 7.96263 5.5 11 5.5C14.0374 5.5 16.5 7.96263 16.5 11C16.5 14.0374 14.0374 16.5 11 16.5C7.96263 16.5 5.5 14.0374 5.5 11ZM7.5625 11C7.5625 12.8948 9.10525 14.4375 11 14.4375C12.8948 14.4375 14.4375 12.8948 14.4375 11C14.4375 9.10388 12.8948 7.5625 11 7.5625C9.10525 7.5625 7.5625 9.10388 7.5625 11Z" fill="white"/>
<path d="M16.9125 5.82024C17.3173 5.82024 17.6454 5.49212 17.6454 5.08737C17.6454 4.68261 17.3173 4.35449 16.9125 4.35449C16.5077 4.35449 16.1796 4.68261 16.1796 5.08737C16.1796 5.49212 16.5077 5.82024 16.9125 5.82024Z" fill="white"/>
</g>
</symbol>
<symbol id="tw" width="22" height="18" viewBox="0 0 22 18">
<path d="M22 2.11613C21.1819 2.475 20.3101 2.71288 19.4013 2.82838C20.3363 2.27013 21.0499 1.39287 21.3854 0.3355C20.5136 0.85525 19.5511 1.22238 18.5254 1.42725C17.6976 0.545875 16.5179 0 15.2309 0C12.7339 0 10.7236 2.02675 10.7236 4.51137C10.7236 4.86888 10.7539 5.21263 10.8281 5.53988C7.0785 5.357 3.76062 3.55988 1.53175 0.82225C1.14262 1.49738 0.914375 2.27012 0.914375 3.102C0.914375 4.664 1.71875 6.04862 2.91775 6.85025C2.19312 6.8365 1.48225 6.62613 0.88 6.29475C0.88 6.3085 0.88 6.32638 0.88 6.34425C0.88 8.536 2.44338 10.3565 4.4935 10.7759C4.12638 10.8763 3.72625 10.9244 3.311 10.9244C3.02225 10.9244 2.73075 10.9079 2.45712 10.8474C3.0415 12.6335 4.69975 13.9466 6.6715 13.9893C5.137 15.1896 3.18863 15.9129 1.07938 15.9129C0.7095 15.9129 0.35475 15.8964 0 15.851C1.99787 17.1394 4.36563 17.875 6.919 17.875C15.2185 17.875 19.756 11 19.756 5.04075C19.756 4.84137 19.7491 4.64887 19.7395 4.45775C20.6346 3.8225 21.3867 3.02913 22 2.11613Z" fill="white"/>
</symbol>
<symbol id="check" width="16" height="16" viewBox="0 0 16 16">
<g>
<path fill-rule="evenodd" clip-rule="evenodd" d="M0 8C0 3.58172 3.58172 0 8 0C12.4161 0.00514317 15.9949 3.58385 16 8C16 12.4183 12.4183 16 8 16C3.58172 16 0 12.4183 0 8ZM8.05467 11.6593L12.618 5.46667C12.7723 5.27572 12.8091 5.01545 12.7139 4.78918C12.6187 4.56291 12.4069 4.40726 12.1625 4.38403C11.9182 4.36079 11.6808 4.47373 11.5447 4.678L7.39333 10.312L4.676 8.138C4.38844 7.90788 3.96879 7.95444 3.73867 8.242C3.50855 8.52956 3.55511 8.94921 3.84267 9.17933L7.10133 11.7847C7.24379 11.896 7.42501 11.9455 7.60428 11.9219C7.78355 11.8983 7.94584 11.8037 8.05467 11.6593Z" fill="#FFAC12"/>
</g>
</symbol>
</svg>